# xmcd
#
# Track frame offsets:
#	150
#	15082
#	28594
#	39651
#	51675
#	70896
#	84235
#	99115
#	113742
#	128681
#	142782
#	155521
#	168178
#
# Disc length: 2433 seconds
#
# Revision: 3
# Processed by: cddbd v1.5.2PL0 Copyright (c) Steve Scherf et al.
# Submitted via: EasyCDDAExtractor 16.0.1.1
#
DISCID=95097f0d
DTITLE=Rory Block - The Lady And Mr  Johnson
DYEAR=2006
DGENRE=Blues
TTITLE0=Cross Road Blues
TTITLE1=Preaching Blues (Up Jumped The Devil)
TTITLE2=Milkcow's Calf Blues
TTITLE3=Walking Blues
TTITLE4=32-20 Blues
TTITLE5=Rambling On My Mind
TTITLE6=Terraplane Blues
TTITLE7=Me And The Devil Blues
TTITLE8=Last Fair Deal Gone Down
TTITLE9=Come In My Kitchen
TTITLE10=Hellhound On My Trail
TTITLE11=If I Had Possession Over Judgement Day
TTITLE12=Kind Hearted Woman Blues
EXTD=Release Date: 08/15/2006\nLabel: RYKODISC
EXTT0=
EXTT1=
EXTT2=
EXTT3=
EXTT4=
EXTT5=
EXTT6=
EXTT7=
EXTT8=
EXTT9=
EXTT10=
EXTT11=
EXTT12=
PLAYORDER=
